<svg width="337" height="113" viewBox="0 0 337 113" fill="none" xmlns="http://www.w3.org/2000/svg">
<path d="M108.204 8.28036L94.0738 16.5387L85.5295 21.5201L71.2671 29.8555L55.0143 39.3345L41.8845 31.6589L27.611 23.3346L15.9547 16.5277L1.82422 8.28036L15.9437 0L41.8845 15.1532L55.0143 22.8177L71.2671 13.3278L94.0958 0L108.204 8.28036Z" fill="white"/>
<path d="M110.042 23.6426V91.359L95.7795 82.4408V48.5496L78.1191 58.9083V94.9219L65.5721 104.742L55.0155 113L44.4588 104.742L31.9228 94.9329V58.9083L14.2625 48.5496V82.4408L0 91.359V23.6426L46.1853 50.7379V87.9831L55.0155 94.8889L63.8567 87.9721V50.7379L110.042 23.6426Z" fill="white"/>
<path d="M143.473 48.5274V35.1447L139.217 44.5577H135.5L131.244 35.1447V48.5274H124.262V23.1255H131.882L137.359 35.0787L142.868 23.1255H150.455V48.5274H143.484H143.473Z" fill="white"/>
<path d="M179.342 48.5274V23.1255H191.009C192.252 23.1255 193.396 23.3784 194.44 23.8732C195.485 24.3681 196.398 25.0499 197.156 25.8966C197.915 26.7433 198.509 27.689 198.927 28.7447C199.345 29.8004 199.554 30.856 199.554 31.9337C199.554 32.9124 199.411 33.8581 199.125 34.7598C198.839 35.6615 198.421 36.4972 197.871 37.245C197.321 37.9928 196.662 38.6415 195.903 39.1914L201.269 48.5274H193.616L189.14 40.7309H186.314V48.5274H179.331H179.342ZM186.325 34.6498H190.723C191.009 34.6498 191.284 34.5399 191.548 34.3309C191.812 34.111 192.032 33.8031 192.208 33.3962C192.384 32.9893 192.472 32.5055 192.472 31.9337C192.472 31.3619 192.373 30.845 192.164 30.4492C191.966 30.0533 191.713 29.7564 191.416 29.5364C191.119 29.3165 190.822 29.2175 190.536 29.2175H186.314V34.6608L186.325 34.6498Z" fill="white"/>
<path d="M214.619 48.7147C212.684 48.7147 210.935 48.3519 209.363 47.6261C207.79 46.9003 206.438 45.9216 205.305 44.69C204.173 43.4584 203.304 42.0728 202.688 40.5443C202.083 39.0048 201.775 37.4103 201.775 35.7719C201.775 34.1334 202.094 32.4729 202.743 30.9444C203.392 29.4159 204.283 28.0523 205.448 26.8427C206.603 25.6331 207.977 24.6874 209.561 23.9946C211.144 23.3018 212.882 22.9609 214.762 22.9609C216.643 22.9609 218.446 23.3238 220.019 24.0496C221.591 24.7754 222.944 25.765 224.065 26.9967C225.187 28.2393 226.045 29.6248 226.66 31.1643C227.265 32.7038 227.573 34.2873 227.573 35.9038C227.573 37.5203 227.254 39.1698 226.627 40.6983C225.99 42.2268 225.099 43.5904 223.944 44.8C222.79 46.0096 221.426 46.9553 219.854 47.6591C218.281 48.3628 216.533 48.7147 214.63 48.7147H214.619ZM208.857 35.8378C208.857 36.6956 208.978 37.5313 209.209 38.323C209.44 39.1148 209.803 39.8406 210.287 40.4674C210.76 41.0942 211.364 41.6 212.09 41.9739C212.816 42.3478 213.685 42.5237 214.685 42.5237C215.686 42.5237 216.555 42.3368 217.302 41.9519C218.039 41.567 218.644 41.0502 219.106 40.3904C219.568 39.7306 219.92 39.0048 220.14 38.2131C220.359 37.4213 220.48 36.5966 220.48 35.7609C220.48 34.9251 220.359 34.0784 220.118 33.2976C219.876 32.5059 219.524 31.8021 219.04 31.1643C218.567 30.5375 217.951 30.0427 217.214 29.6798C216.478 29.3169 215.62 29.141 214.641 29.141C213.663 29.141 212.772 29.3279 212.046 29.7128C211.32 30.0977 210.716 30.6035 210.243 31.2303C209.77 31.8681 209.418 32.5829 209.187 33.3746C208.956 34.1774 208.846 34.9911 208.846 35.8268L208.857 35.8378Z" fill="white"/>
<path d="M245.708 31.461C244.894 30.9881 244.157 30.5923 243.487 30.2954C242.816 29.9985 242.09 29.7345 241.309 29.4926C240.529 29.2507 239.748 29.1297 238.978 29.1297C238.384 29.1297 237.889 29.2287 237.516 29.4156C237.131 29.6026 236.944 29.9215 236.944 30.3723C236.944 30.8232 237.131 31.1421 237.516 31.406C237.9 31.6699 238.439 31.9009 239.143 32.1098C239.847 32.3187 240.683 32.5826 241.661 32.8905C243.234 33.3634 244.597 33.9022 245.741 34.518C246.885 35.1338 247.764 35.9146 248.391 36.8713C249.018 37.828 249.326 39.1036 249.326 40.6871C249.326 42.2706 249.051 43.4692 248.501 44.5028C247.951 45.5365 247.214 46.3503 246.28 46.9661C245.345 47.5819 244.311 48.0217 243.168 48.2966C242.024 48.5715 240.858 48.7035 239.66 48.7035C238.461 48.7035 237.175 48.5825 235.855 48.3296C234.525 48.0767 233.249 47.7358 232.006 47.2959C230.764 46.8561 229.631 46.3393 228.608 45.7344L231.61 39.6204C232.567 40.1922 233.436 40.6541 234.228 41.0169C235.008 41.3798 235.888 41.6987 236.856 41.9846C237.823 42.2706 238.791 42.4135 239.77 42.4135C240.529 42.4135 241.067 42.3145 241.364 42.1276C241.661 41.9407 241.815 41.6767 241.815 41.3578C241.815 40.863 241.551 40.4781 241.023 40.2032C240.496 39.9283 239.814 39.6754 238.967 39.4225C238.12 39.1695 237.186 38.8836 236.163 38.5537C234.689 38.0589 233.469 37.4981 232.512 36.8603C231.555 36.2335 230.852 35.4857 230.401 34.617C229.95 33.7483 229.719 32.7036 229.719 31.472C229.719 29.6026 230.159 28.0411 231.039 26.7875C231.918 25.5339 233.084 24.5772 234.525 23.9284C235.965 23.2796 237.527 22.9497 239.198 22.9497C240.441 22.9497 241.639 23.1037 242.794 23.4006C243.949 23.6975 245.037 24.0604 246.049 24.4892C247.061 24.9181 247.951 25.3249 248.71 25.7098L245.708 31.472V31.461Z" fill="white"/>
<path d="M252.402 48.5274V23.1255H259.385V42.4463H270.909V48.5274H252.413H252.402Z" fill="white"/>
<path d="M279.201 23.1255H286.998L295.08 48.5274H287.999L286.69 43.557H279.509L278.201 48.5274H271.086L279.212 23.1255H279.201ZM285.458 38.9055L283.094 29.9653L280.73 38.9055H285.447H285.458Z" fill="white"/>
<path d="M300.017 23.1255L304.987 40.478L309.892 23.1255H317.227L308.462 48.5274H301.524L292.649 23.1255H300.017Z" fill="white"/>
<path d="M129.419 66.0674L133.96 76.4481L138.612 66.0674H146.199L137.435 83.068V91.4803H130.496V83.002L121.875 66.0784H129.43L129.419 66.0674Z" fill="white"/>
<path d="M295.817 66.0674L300.359 76.4481L305.01 66.0674H312.598L303.833 83.068V91.4803H296.895V83.002L288.273 66.0784H295.828L295.817 66.0674Z" fill="white"/>
<path d="M160.022 23.1255L164.564 33.5062L169.215 23.1255H176.803L168.039 40.1261V48.5384H161.1V40.0601L152.479 23.1365H160.033L160.022 23.1255Z" fill="white"/>
<path d="M159.968 91.645C157.945 91.645 156.196 91.3151 154.745 90.6443C153.293 89.9735 152.106 89.0608 151.182 87.8952C150.258 86.7296 149.587 85.388 149.159 83.8705C148.73 82.353 148.51 80.7695 148.51 79.098V66.0562H155.482V79.087C155.482 79.9227 155.57 80.7145 155.734 81.4842C155.899 82.243 156.163 82.9248 156.515 83.5186C156.878 84.1124 157.329 84.5853 157.89 84.9261C158.451 85.267 159.132 85.443 159.946 85.443C160.76 85.443 161.486 85.267 162.057 84.9261C162.629 84.5853 163.091 84.1014 163.432 83.4966C163.773 82.8918 164.037 82.21 164.202 81.4402C164.367 80.6815 164.455 79.8897 164.455 79.087V66.0562H171.426V79.098C171.426 80.8574 171.196 82.5069 170.734 84.0244C170.272 85.5529 169.568 86.8835 168.644 88.0272C167.71 89.1708 166.533 90.0615 165.081 90.6883C163.63 91.3151 161.925 91.634 159.946 91.634L159.968 91.645Z" fill="white"/>
<path d="M176.253 91.4693V66.0674H187.92C189.163 66.0674 190.306 66.3203 191.351 66.8151C192.396 67.321 193.308 67.9918 194.067 68.8385C194.826 69.6852 195.42 70.6309 195.838 71.6866C196.256 72.7423 196.464 73.7979 196.464 74.8756C196.464 75.8543 196.322 76.8 196.036 77.7017C195.75 78.6034 195.332 79.4391 194.782 80.1869C194.232 80.9346 193.572 81.5834 192.814 82.1333L198.18 91.4693H190.526L186.051 83.6728H183.225V91.4693H176.253ZM183.225 77.5917H187.623C187.909 77.5917 188.184 77.4817 188.448 77.2728C188.712 77.0639 188.932 76.745 189.108 76.3381C189.284 75.9312 189.372 75.4474 189.372 74.8756C189.372 74.3038 189.273 73.7869 189.064 73.391C188.866 72.9952 188.613 72.6983 188.316 72.4783C188.019 72.2584 187.722 72.1594 187.436 72.1594H183.214V77.6027L183.225 77.5917Z" fill="white"/>
<path d="M201.182 91.4693V66.0674H208.153V91.4693H201.182Z" fill="white"/>
<path d="M218.467 66.0674L223.009 76.4481L227.66 66.0674H235.248L226.484 83.068V91.4803H219.545V83.002L210.924 66.0784H218.478L218.467 66.0674Z" fill="white"/>
<path d="M247.73 91.6449C245.794 91.6449 244.046 91.282 242.473 90.5563C240.901 89.8305 239.548 88.8518 238.416 87.6202C237.283 86.3886 236.414 85.003 235.798 83.4745C235.194 81.935 234.886 80.3405 234.886 78.702C234.886 77.0636 235.205 75.4031 235.853 73.8746C236.502 72.3461 237.393 70.9825 238.559 69.7729C239.713 68.5633 241.088 67.6176 242.671 66.9248C244.255 66.232 245.992 65.8911 247.873 65.8911C249.753 65.8911 251.556 66.254 253.129 66.9798C254.701 67.7055 256.054 68.6952 257.176 69.9268C258.297 71.1694 259.155 72.555 259.771 74.0945C260.376 75.634 260.684 77.2175 260.684 78.834C260.684 80.4505 260.365 82.1 259.738 83.6285C259.1 85.157 258.209 86.5205 257.055 87.7302C255.9 88.9398 254.536 89.8855 252.964 90.5892C251.391 91.293 249.643 91.6449 247.741 91.6449H247.73ZM241.967 78.768C241.967 79.6257 242.088 80.4615 242.319 81.2532C242.561 82.056 242.913 82.7707 243.397 83.3975C243.87 84.0243 244.475 84.5302 245.2 84.9041C245.926 85.2779 246.795 85.4539 247.796 85.4539C248.796 85.4539 249.665 85.2669 250.413 84.8821C251.15 84.4972 251.754 83.9803 252.216 83.3206C252.678 82.6608 253.03 81.935 253.25 81.1433C253.47 80.3515 253.591 79.5268 253.591 78.691C253.591 77.8553 253.47 77.0086 253.228 76.2278C252.986 75.4361 252.634 74.7323 252.15 74.0945C251.677 73.4677 251.062 72.9729 250.325 72.61C249.588 72.2471 248.73 72.0711 247.752 72.0711C246.773 72.0711 245.882 72.2581 245.156 72.643C244.431 73.0278 243.826 73.5337 243.353 74.1605C242.88 74.7983 242.528 75.513 242.297 76.3048C242.066 77.1075 241.956 77.9213 241.956 78.757L241.967 78.768Z" fill="white"/>
<path d="M268.336 66.0674L273.307 83.4199L278.211 66.0674H285.546L276.782 91.4693H269.843L260.969 66.0674H268.336Z" fill="white"/>
<path d="M312.543 78.5148C312.543 76.9643 312.84 75.4468 313.423 73.9513C314.005 72.4558 314.863 71.1032 315.985 69.8936C317.107 68.673 318.47 67.7053 320.087 66.9795C321.692 66.2538 323.517 65.8909 325.541 65.8909C327.971 65.8909 330.093 66.3967 331.908 67.4084C333.722 68.4201 335.064 69.7616 335.955 71.4331L330.621 75.2269C330.313 74.3912 329.862 73.7534 329.28 73.2915C328.697 72.8407 328.059 72.5218 327.388 72.3458C326.706 72.1699 326.047 72.0819 325.398 72.0819C324.397 72.0819 323.528 72.2798 322.803 72.6757C322.077 73.0716 321.483 73.5884 321.01 74.2372C320.548 74.875 320.197 75.6008 319.977 76.3815C319.757 77.1623 319.636 77.954 319.636 78.7458C319.636 79.6255 319.768 80.4722 320.032 81.286C320.295 82.0997 320.68 82.8145 321.175 83.4523C321.681 84.0901 322.286 84.5739 323.023 84.9368C323.748 85.2997 324.562 85.4756 325.475 85.4756C326.113 85.4756 326.772 85.3767 327.443 85.1677C328.114 84.9698 328.719 84.6399 329.269 84.189C329.818 83.7382 330.236 83.1334 330.522 82.3636L336.207 85.7615C335.702 87.0041 334.877 88.0598 333.7 88.9505C332.535 89.8302 331.204 90.512 329.73 90.9739C328.257 91.4357 326.783 91.6667 325.332 91.6667C323.451 91.6667 321.725 91.2928 320.164 90.545C318.602 89.7972 317.249 88.7966 316.117 87.543C314.984 86.2894 314.104 84.8818 313.489 83.3203C312.873 81.7588 312.554 80.1643 312.554 78.5478L312.543 78.5148ZM322.484 58.7651L325.53 61.0194L328.576 58.7651L332.007 60.2717L327.96 64.3843H323.1L319.053 60.2717L322.484 58.7651Z" fill="white"/>
</svg>
