<svg width="185" height="62" viewBox="0 0 185 62" fill="none" xmlns="http://www.w3.org/2000/svg">
<path d="M59.443 4.54321L51.69 9.07435L47.002 11.8075L39.1766 16.3809L30.2591 21.5817L23.0551 17.3704L15.2237 12.803L8.82821 9.06832L1.0752 4.54321L8.82218 0L23.0551 8.31413L30.2591 12.5195L39.1766 7.31257L51.7021 0L59.443 4.54321Z" fill="white"/>
<path d="M60.4512 12.972V50.1262L52.6258 45.233V26.6379L42.936 32.3214V52.081L36.0518 57.4689L30.2597 62.0001L24.4676 57.4689L17.5894 52.0871V32.3214L7.89964 26.6379V45.233L0.0742188 50.1262V12.972L25.4148 27.8385V48.2739L30.2597 52.0629L35.1106 48.2679V27.8385L60.4512 12.972Z" fill="white"/>
<path d="M78.7944 26.6258V19.2831L76.4594 24.4477H74.4201L72.0852 19.2831V26.6258H68.2539V12.6885H72.4351L75.4398 19.2469L78.4625 12.6885H82.6257V26.6258H78.8004H78.7944Z" fill="white"/>
<path d="M98.4758 26.6258V12.6885H104.877C105.559 12.6885 106.187 12.8272 106.76 13.0988C107.333 13.3703 107.834 13.7443 108.25 14.2089C108.666 14.6735 108.992 15.1924 109.221 15.7716C109.451 16.3508 109.565 16.93 109.565 17.5213C109.565 18.0583 109.487 18.5771 109.33 19.0719C109.173 19.5666 108.944 20.0252 108.642 20.4355C108.34 20.8457 107.978 21.2017 107.562 21.5034L110.507 26.6258H106.307L103.852 22.3481H102.301V26.6258H98.4697H98.4758ZM102.307 19.0116H104.72C104.877 19.0116 105.028 18.9512 105.173 18.8366C105.318 18.7159 105.438 18.547 105.535 18.3237C105.631 18.1005 105.68 17.835 105.68 17.5213C105.68 17.2076 105.625 16.924 105.511 16.7068C105.402 16.4896 105.263 16.3267 105.101 16.206C104.938 16.0853 104.775 16.031 104.618 16.031H102.301V19.0176L102.307 19.0116Z" fill="white"/>
<path d="M117.831 26.7284C116.769 26.7284 115.81 26.5293 114.947 26.1311C114.084 25.7329 113.342 25.1959 112.721 24.5202C112.099 23.8444 111.623 23.0842 111.285 22.2456C110.953 21.4009 110.784 20.526 110.784 19.627C110.784 18.728 110.959 17.817 111.315 16.9783C111.671 16.1397 112.16 15.3915 112.799 14.7278C113.433 14.0642 114.187 13.5453 115.056 13.1652C115.925 12.7851 116.878 12.598 117.91 12.598C118.941 12.598 119.931 12.7971 120.794 13.1953C121.656 13.5935 122.399 14.1366 123.014 14.8123C123.629 15.4941 124.1 16.2543 124.438 17.099C124.77 17.9437 124.939 18.8125 124.939 19.6994C124.939 20.5863 124.764 21.4914 124.42 22.33C124.07 23.1687 123.581 23.9168 122.948 24.5805C122.314 25.2442 121.566 25.7631 120.703 26.1492C119.84 26.5354 118.881 26.7284 117.837 26.7284H117.831ZM114.67 19.6632C114.67 20.1338 114.736 20.5924 114.863 21.0268C114.99 21.4612 115.189 21.8594 115.454 22.2033C115.714 22.5472 116.045 22.8248 116.444 23.0299C116.842 23.235 117.318 23.3316 117.867 23.3316C118.417 23.3316 118.893 23.229 119.303 23.0178C119.708 22.8067 120.04 22.5231 120.293 22.1611C120.546 21.7991 120.739 21.4009 120.86 20.9665C120.981 20.532 121.047 20.0795 121.047 19.621C121.047 19.1624 120.981 18.6979 120.848 18.2695C120.715 17.8351 120.522 17.4489 120.257 17.099C119.997 16.7551 119.659 16.4836 119.255 16.2845C118.851 16.0854 118.38 15.9888 117.843 15.9888C117.306 15.9888 116.818 16.0914 116.419 16.3026C116.021 16.5137 115.689 16.7913 115.43 17.1352C115.171 17.4851 114.977 17.8773 114.851 18.3117C114.724 18.7522 114.664 19.1986 114.664 19.6572L114.67 19.6632Z" fill="white"/>
<path d="M134.888 17.2618C134.441 17.0024 134.037 16.7852 133.669 16.6223C133.301 16.4594 132.903 16.3146 132.475 16.1818C132.046 16.0491 131.618 15.9827 131.195 15.9827C130.87 15.9827 130.598 16.037 130.393 16.1396C130.182 16.2422 130.079 16.4171 130.079 16.6645C130.079 16.9119 130.182 17.0869 130.393 17.2317C130.604 17.3765 130.9 17.5032 131.286 17.6178C131.672 17.7324 132.131 17.8772 132.668 18.0462C133.53 18.3056 134.279 18.6013 134.906 18.9391C135.533 19.277 136.016 19.7054 136.36 20.2303C136.704 20.7552 136.873 21.4551 136.873 22.3239C136.873 23.1927 136.722 23.8504 136.42 24.4175C136.119 24.9847 135.715 25.4312 135.202 25.769C134.689 26.1069 134.122 26.3482 133.494 26.4991C132.867 26.6499 132.227 26.7223 131.57 26.7223C130.912 26.7223 130.206 26.656 129.482 26.5172C128.752 26.3784 128.052 26.1914 127.37 25.95C126.688 25.7087 126.067 25.4251 125.506 25.0933L127.153 21.7387C127.678 22.0524 128.155 22.3058 128.589 22.5049C129.017 22.704 129.5 22.879 130.031 23.0359C130.562 23.1927 131.093 23.2712 131.63 23.2712C132.046 23.2712 132.342 23.2169 132.505 23.1143C132.668 23.0117 132.752 22.8669 132.752 22.692C132.752 22.4205 132.607 22.2093 132.318 22.0584C132.028 21.9076 131.654 21.7688 131.189 21.6301C130.725 21.4913 130.212 21.3344 129.651 21.1534C128.842 20.8819 128.173 20.5742 127.648 20.2243C127.123 19.8804 126.737 19.4701 126.489 18.9934C126.242 18.5168 126.115 17.9436 126.115 17.2679C126.115 16.2422 126.357 15.3854 126.839 14.6976C127.322 14.0098 127.961 13.4849 128.752 13.1289C129.542 12.7729 130.399 12.5919 131.316 12.5919C131.998 12.5919 132.656 12.6764 133.289 12.8393C133.923 13.0022 134.52 13.2013 135.075 13.4366C135.63 13.6719 136.119 13.8951 136.535 14.1063L134.888 17.2679V17.2618Z" fill="white"/>
<path d="M138.562 26.6258V12.6885H142.394V23.2893H148.717V26.6258H138.569H138.562Z" fill="white"/>
<path d="M153.265 12.6885H157.543L161.978 26.6258H158.092L157.374 23.8987H153.434L152.716 26.6258H148.812L153.271 12.6885H153.265ZM156.698 21.3465L155.401 16.4413L154.104 21.3465H156.692H156.698Z" fill="white"/>
<path d="M164.687 12.6885L167.414 22.2093L170.105 12.6885H174.129L169.321 26.6258H165.514L160.645 12.6885H164.687Z" fill="white"/>
<path d="M71.0833 36.2493L73.5751 41.9449L76.1273 36.2493H80.2904L75.4817 45.577V50.1926H71.6746V45.5408L66.9443 36.2553H71.0893L71.0833 36.2493Z" fill="white"/>
<path d="M162.381 36.2493L164.873 41.9449L167.425 36.2493H171.588L166.78 45.577V50.1926H162.972V45.5408L158.242 36.2553H162.387L162.381 36.2493Z" fill="white"/>
<path d="M87.8743 12.6885L90.3661 18.3841L92.9183 12.6885H97.0814L92.2727 22.0162V26.6318H88.4656V21.98L83.7354 12.6945H87.8803L87.8743 12.6885Z" fill="white"/>
<path d="M87.8445 50.2831C86.7343 50.2831 85.775 50.1021 84.9786 49.734C84.1822 49.366 83.5306 48.8652 83.0237 48.2256C82.5169 47.5861 82.1489 46.85 81.9136 46.0174C81.6783 45.1848 81.5576 44.316 81.5576 43.3989V36.2432H85.3828V43.3928C85.3828 43.8514 85.4311 44.2858 85.5216 44.7081C85.6121 45.1244 85.7569 45.4985 85.95 45.8243C86.1491 46.1501 86.3965 46.4096 86.7042 46.5966C87.0119 46.7836 87.386 46.8802 87.8324 46.8802C88.2789 46.8802 88.6771 46.7836 88.9909 46.5966C89.3046 46.4096 89.558 46.1441 89.745 45.8123C89.9321 45.4804 90.0769 45.1063 90.1674 44.684C90.2579 44.2677 90.3062 43.8333 90.3062 43.3928V36.2432H94.1314V43.3989C94.1314 44.3642 94.0047 45.2692 93.7513 46.1019C93.4979 46.9405 93.1117 47.6706 92.6049 48.2981C92.0921 48.9255 91.4465 49.4142 90.6501 49.7582C89.8536 50.1021 88.9185 50.277 87.8324 50.277L87.8445 50.2831Z" fill="white"/>
<path d="M96.7803 50.1866V36.2493H103.182C103.864 36.2493 104.491 36.388 105.064 36.6595C105.637 36.9371 106.138 37.3051 106.555 37.7697C106.971 38.2343 107.297 38.7532 107.526 39.3324C107.755 39.9116 107.87 40.4908 107.87 41.0821C107.87 41.6191 107.791 42.1379 107.635 42.6327C107.478 43.1274 107.248 43.586 106.947 43.9962C106.645 44.4065 106.283 44.7625 105.867 45.0642L108.811 50.1866H104.612L102.156 45.9089H100.605V50.1866H96.7803ZM100.605 42.5723H103.019C103.176 42.5723 103.327 42.512 103.471 42.3974C103.616 42.2827 103.737 42.1078 103.833 41.8845C103.93 41.6613 103.978 41.3958 103.978 41.0821C103.978 40.7683 103.924 40.4848 103.809 40.2676C103.701 40.0504 103.562 39.8875 103.399 39.7668C103.236 39.6461 103.073 39.5918 102.916 39.5918H100.599V42.5784L100.605 42.5723Z" fill="white"/>
<path d="M110.458 50.1866V36.2493H114.283V50.1866H110.458Z" fill="white"/>
<path d="M119.943 36.2493L122.435 41.9449L124.987 36.2493H129.15L124.341 45.577V50.1926H120.534V45.5408L115.804 36.2553H119.949L119.943 36.2493Z" fill="white"/>
<path d="M135.998 50.283C134.936 50.283 133.977 50.0839 133.114 49.6857C132.251 49.2875 131.509 48.7505 130.888 48.0747C130.266 47.399 129.79 46.6388 129.452 45.8001C129.12 44.9554 128.951 44.0806 128.951 43.1816C128.951 42.2826 129.126 41.3715 129.482 40.5329C129.838 39.6942 130.327 38.9461 130.966 38.2824C131.6 37.6187 132.354 37.0998 133.223 36.7197C134.092 36.3396 135.045 36.1526 136.077 36.1526C137.108 36.1526 138.098 36.3517 138.961 36.7499C139.823 37.1481 140.566 37.6911 141.181 38.3669C141.796 39.0487 142.267 39.8089 142.605 40.6536C142.937 41.4982 143.106 42.3671 143.106 43.254C143.106 44.1409 142.931 45.0459 142.587 45.8846C142.237 46.7232 141.748 47.4714 141.115 48.1351C140.481 48.7988 139.733 49.3176 138.87 49.7038C138.007 50.0899 137.048 50.283 136.004 50.283H135.998ZM132.837 43.2178C132.837 43.6884 132.903 44.1469 133.03 44.5814C133.163 45.0218 133.356 45.414 133.621 45.7579C133.881 46.1018 134.212 46.3793 134.611 46.5845C135.009 46.7896 135.485 46.8861 136.034 46.8861C136.584 46.8861 137.06 46.7836 137.47 46.5724C137.875 46.3612 138.207 46.0777 138.46 45.7156C138.713 45.3536 138.906 44.9554 139.027 44.521C139.148 44.0866 139.214 43.6341 139.214 43.1756C139.214 42.717 139.148 42.2524 139.015 41.8241C138.882 41.3896 138.689 41.0035 138.424 40.6536C138.164 40.3097 137.826 40.0381 137.422 39.839C137.018 39.6399 136.547 39.5434 136.01 39.5434C135.473 39.5434 134.985 39.646 134.586 39.8571C134.188 40.0683 133.856 40.3459 133.597 40.6898C133.338 41.0397 133.144 41.4319 133.018 41.8663C132.891 42.3067 132.831 42.7532 132.831 43.2118L132.837 43.2178Z" fill="white"/>
<path d="M147.304 36.2493L150.031 45.7701L152.722 36.2493H156.747L151.938 50.1866H148.131L143.262 36.2493H147.304Z" fill="white"/>
<path d="M171.561 43.079C171.561 42.2283 171.723 41.3957 172.043 40.5752C172.363 39.7546 172.834 39.0125 173.449 38.3488C174.064 37.6791 174.813 37.1481 175.7 36.7499C176.58 36.3517 177.582 36.1526 178.692 36.1526C180.026 36.1526 181.19 36.4302 182.185 36.9852C183.181 37.5403 183.917 38.2764 184.406 39.1935L181.48 41.275C181.311 40.8165 181.063 40.4665 180.743 40.2131C180.424 39.9658 180.074 39.7908 179.706 39.6943C179.332 39.5977 178.97 39.5495 178.614 39.5495C178.065 39.5495 177.588 39.6581 177.19 39.8753C176.792 40.0925 176.466 40.376 176.206 40.732C175.953 41.082 175.76 41.4802 175.639 41.9085C175.519 42.3369 175.452 42.7713 175.452 43.2057C175.452 43.6884 175.525 44.153 175.669 44.5995C175.814 45.046 176.025 45.4381 176.297 45.7881C176.574 46.138 176.906 46.4035 177.31 46.6026C177.709 46.8017 178.155 46.8982 178.656 46.8982C179.006 46.8982 179.368 46.8439 179.736 46.7293C180.104 46.6207 180.436 46.4397 180.737 46.1923C181.039 45.9449 181.268 45.6131 181.425 45.1908L184.545 47.0551C184.267 47.7369 183.815 48.3161 183.169 48.8048C182.529 49.2875 181.799 49.6616 180.991 49.915C180.182 50.1684 179.374 50.2951 178.577 50.2951C177.546 50.2951 176.598 50.0899 175.742 49.6797C174.885 49.2694 174.143 48.7203 173.521 48.0325C172.9 47.3447 172.417 46.5724 172.079 45.7157C171.742 44.8589 171.567 43.9841 171.567 43.0971L171.561 43.079ZM177.015 32.2429L178.686 33.4798L180.357 32.2429L182.24 33.0695L180.019 35.326H177.353L175.132 33.0695L177.015 32.2429Z" fill="white"/>
</svg>
